{"title":"Humpty Sharma Ki Dulhania 2014 Hindi 720p DVDRip x264 ESubs-Team","uid":10834216,"size":1024649765,"categoryP":"video","categoryS":"hd___movies","magnet":"?xt=urn:btih:25e8035a8cc7ee6d658590ca73ada240c244cab8&amp;dn=Humpty+Sharma+Ki+Dulhania+2014+Hindi+720p+DVDRip+x264+ESubs-Team&amp;tr=udp%3A%2F%2Ftracker.openbittorrent.com%3A80&amp;tr=udp%3A%2F%2Fopen.demonii.com%3A1337&amp;tr=udp%3A%2F%2Ftracker.coppersurfer.tk%3A6969&amp;tr=udp%3A%2F%2Fexodus.desync.com%3A6969","seeders":12,"leechers":4,"uploader":"HeroMaster","files":-1,"time":1408658450,"description":"::::::::::: TEAMTNT PRESENTS :::::::::::\n\n &lt;a href=&quot;\nhttp://i.imgur.com/UALrn2V.png&quot; rel=&quot;nofollow&quot; target=&quot;_NEW&quot;&gt;\nhttp://i.imgur.com/UALrn2V.png&lt;/a&gt;\n\n\n:::: Humpty Sharma Ki Dulhania 2014 Hindi 720p DVDRip x264 ESubs ::::\n\n\n::Information::\n\n\nGeneral\nFormat : Matroska\nFormat version : Version 4 / Version 2\nFile size : 970 MiB\nDuration : 2h 11mn\nOverall bit rate : 1 030 Kbps\nEncoded date : UTC 2014-08-21 12:53:03\nWriting library : libebml v1.3.0 + libmatroska v1.4.1\n\n\nVideo\nID : 1\nFormat : AVC\nFormat/Info : Advanced Video Codec\nFormat profile : &lt;a class=&quot;__cf_email__&quot; href=&quot;/cdn-cgi/l/email-protection&quot; data-cfemail=&quot;622a0b050a222e514c53&quot;&gt;[email&amp;#160;protected]&lt;/a&gt;&lt;script cf-hash='f9e31' type=&quot;text/javascript&quot;&gt;\n/* &lt;![CDATA[ */!function(){try{var t=&quot;currentScript&quot;in document?document.currentScript:function(){for(var t=document.getElementsByTagName(&quot;script&quot;),e=t.length;e--;)if(t[e].getAttribute(&quot;cf-hash&quot;))return t[e]}();if(t&amp;&amp;t.previousSibling){var e,r,n,i,c=t.previousSibling,a=c.getAttribute(&quot;data-cfemail&quot;);if(a){for(e=&quot;&quot;,r=parseInt(a.substr(0,2),16),n=2;a.length-n;n+=2)i=parseInt(a.substr(n,2),16)^r,e+=String.fromCharCode(i);e=document.createTextNode(e),c.parentNode.replaceChild(e,c)}}}catch(u){}}();/* ]]&gt; */&lt;/script&gt;\nFormat settings, CABAC : Yes\nFormat settings, ReFrames : 4 frames\nCodec ID : V_MPEG4/ISO/AVC\nDuration : 2h 11mn\nBit rate : 900 Kbps\nWidth : 1 280 pixels\nHeight : 544 pixels\nDisplay aspect ratio : 2.35:1\nFrame rate mode : Constant\nFrame rate : 23.976 fps\nColor space : YUV\nChroma subsampling : 4:2:0\nBit depth : 8 bits\nScan type : Progressive\nBits/(Pixel*Frame) : 0.054\nStream size : 830 MiB (86%)\nTitle : Mafiaking\nLanguage : Hindi\nDefault : Yes\nForced : No\n\n\nAudio\nID : 2\nFormat : MPEG Audio\nFormat version : Version 1\nFormat profile : Layer 3\nMode : Joint stereo\nMode extension : MS Stereo\nCodec ID : A_MPEG/L3\nCodec ID/Hint : MP3\nDuration : 2h 11mn\nBit rate mode : Constant\nBit rate : 128 Kbps\nChannel(s) : 2 channels\nSampling rate : 48.0 KHz\nCompression mode : Lossy\nStream size : 121 MiB (12%)\nTitle : Mafiaking\nWriting library : LAME3.99r\nLanguage : Hindi\nDefault : Yes\nForced : No\n\n\n::IMDB::\n\n &lt;a href=&quot;\nhttp://www.imdb.com/title/tt3678938/&quot; rel=&quot;nofollow&quot; target=&quot;_NEW&quot;&gt;\nhttp://www.imdb.com/title/tt3678938/&lt;/a&gt;\n\n\n::Greetz and Respect::\n\n\nALL CREDIT Goes to Mafiaking for Encoding and TeamTNT for Support.\n\n\n::Poster::\n\n &lt;a href=&quot;\nhttp://i.imgur.com/OiWc34Q.jpg&quot; rel=&quot;nofollow&quot; target=&quot;_NEW&quot;&gt;\nhttp://i.imgur.com/OiWc34Q.jpg&lt;/a&gt;\n\n\n::Screenshots::\n\n &lt;a href=&quot;\nhttp://i.imgur.com/0J868oo.jpg&quot; rel=&quot;nofollow&quot; target=&quot;_NEW&quot;&gt;\nhttp://i.imgur.com/0J868oo.jpg&lt;/a&gt;\n\n &lt;a href=&quot;\nhttp://i.imgur.com/qxkquVX.jpg&quot; rel=&quot;nofollow&quot; target=&quot;_NEW&quot;&gt;\nhttp://i.imgur.com/qxkquVX.jpg&lt;/a&gt;\n\n &lt;a href=&quot;\nhttp://i.imgur.com/JwrEKTz.jpg&quot; rel=&quot;nofollow&quot; target=&quot;_NEW&quot;&gt;\nhttp://i.imgur.com/JwrEKTz.jpg&lt;/a&gt;\n\n\nSEED AND ENJOY!","torrent":{"xt":"urn:btih:25e8035a8cc7ee6d658590ca73ada240c244cab8","amp;dn":"Humpty+Sharma+Ki+Dulhania+2014+Hindi+720p+DVDRip+x264+ESubs-Team","amp;tr":["udp%3A%2F%2Ftracker.openbittorrent.com%3A80","udp%3A%2F%2Fopen.demonii.com%3A1337","udp%3A%2F%2Ftracker.coppersurfer.tk%3A6969","udp%3A%2F%2Fexodus.desync.com%3A6969"],"infoHash":"25e8035a8cc7ee6d658590ca73ada240c244cab8","infoHashBuffer":{"type":"Buffer","data":[37,232,3,90,140,199,238,109,101,133,144,202,115,173,162,64,194,68,202,184]},"announce":[],"urlList":[]}}